<mxfile host="app.diagrams.net" agent="Mozilla/5.0 (Windows NT 10.0; Win64; x64) AppleWebKit/537.36 (KHTML, like Gecko) Chrome/135.0.0.0 Safari/537.36" version="26.2.14">
  <diagram name="Page-1" id="YUnxOmwi9bWxlFoxPZSl">
    <mxGraphModel dx="1042" dy="567" grid="1" gridSize="10" guides="1" tooltips="1" connect="1" arrows="1" fold="1" page="1" pageScale="1" pageWidth="850" pageHeight="1100" math="0" shadow="0">
      <root>
        <mxCell id="0" />
        <mxCell id="1" parent="0" />
        <mxCell id="bciM2c_uNqjCZL8pXF_m-3" style="edgeStyle=orthogonalEdgeStyle;rounded=0;orthogonalLoop=1;jettySize=auto;html=1;exitX=0.5;exitY=1;exitDx=0;exitDy=0;entryX=0.5;entryY=0;entryDx=0;entryDy=0;" parent="1" source="bciM2c_uNqjCZL8pXF_m-1" target="bciM2c_uNqjCZL8pXF_m-2" edge="1">
          <mxGeometry relative="1" as="geometry" />
        </mxCell>
        <mxCell id="bciM2c_uNqjCZL8pXF_m-1" value="1" style="ellipse;whiteSpace=wrap;html=1;aspect=fixed;" parent="1" vertex="1">
          <mxGeometry x="360" y="40" width="50" height="50" as="geometry" />
        </mxCell>
        <mxCell id="bciM2c_uNqjCZL8pXF_m-2" value="2-3" style="ellipse;whiteSpace=wrap;html=1;aspect=fixed;" parent="1" vertex="1">
          <mxGeometry x="360" y="110" width="50" height="50" as="geometry" />
        </mxCell>
        <mxCell id="bciM2c_uNqjCZL8pXF_m-9" style="edgeStyle=orthogonalEdgeStyle;rounded=0;orthogonalLoop=1;jettySize=auto;html=1;" parent="1" source="bciM2c_uNqjCZL8pXF_m-6" target="bciM2c_uNqjCZL8pXF_m-8" edge="1">
          <mxGeometry relative="1" as="geometry" />
        </mxCell>
        <mxCell id="bciM2c_uNqjCZL8pXF_m-6" value="4-5" style="ellipse;whiteSpace=wrap;html=1;" parent="1" vertex="1">
          <mxGeometry x="360" y="180" width="50" height="50" as="geometry" />
        </mxCell>
        <mxCell id="bciM2c_uNqjCZL8pXF_m-23" style="edgeStyle=orthogonalEdgeStyle;rounded=0;orthogonalLoop=1;jettySize=auto;html=1;entryX=0.5;entryY=0;entryDx=0;entryDy=0;" parent="1" source="bciM2c_uNqjCZL8pXF_m-8" target="bciM2c_uNqjCZL8pXF_m-18" edge="1">
          <mxGeometry relative="1" as="geometry" />
        </mxCell>
        <mxCell id="bciM2c_uNqjCZL8pXF_m-8" value="6" style="ellipse;whiteSpace=wrap;html=1;aspect=fixed;" parent="1" vertex="1">
          <mxGeometry x="360" y="260" width="50" height="50" as="geometry" />
        </mxCell>
        <mxCell id="bciM2c_uNqjCZL8pXF_m-10" value="42" style="ellipse;whiteSpace=wrap;html=1;aspect=fixed;" parent="1" vertex="1">
          <mxGeometry x="365" y="1090" width="40" height="40" as="geometry" />
        </mxCell>
        <mxCell id="bciM2c_uNqjCZL8pXF_m-16" value="" style="edgeStyle=elbowEdgeStyle;elbow=vertical;endArrow=classic;html=1;curved=0;rounded=0;endSize=8;startSize=8;entryX=0;entryY=0.5;entryDx=0;entryDy=0;exitX=0;exitY=0.5;exitDx=0;exitDy=0;" parent="1" source="bciM2c_uNqjCZL8pXF_m-2" target="bciM2c_uNqjCZL8pXF_m-10" edge="1">
          <mxGeometry width="50" height="50" relative="1" as="geometry">
            <mxPoint x="250" y="90" as="sourcePoint" />
            <mxPoint x="450" y="310" as="targetPoint" />
            <Array as="points">
              <mxPoint x="230" y="420" />
            </Array>
          </mxGeometry>
        </mxCell>
        <mxCell id="bciM2c_uNqjCZL8pXF_m-18" value="7-8" style="ellipse;whiteSpace=wrap;html=1;aspect=fixed;" parent="1" vertex="1">
          <mxGeometry x="360" y="340" width="50" height="50" as="geometry" />
        </mxCell>
        <mxCell id="bciM2c_uNqjCZL8pXF_m-22" value="" style="edgeStyle=elbowEdgeStyle;elbow=vertical;endArrow=classic;html=1;curved=0;rounded=0;endSize=8;startSize=8;exitX=1.016;exitY=0.32;exitDx=0;exitDy=0;exitPerimeter=0;entryX=1;entryY=0.5;entryDx=0;entryDy=0;" parent="1" source="bciM2c_uNqjCZL8pXF_m-18" target="bciM2c_uNqjCZL8pXF_m-10" edge="1">
          <mxGeometry width="50" height="50" relative="1" as="geometry">
            <mxPoint x="400" y="300" as="sourcePoint" />
            <mxPoint x="450" y="250" as="targetPoint" />
            <Array as="points">
              <mxPoint x="550" y="470" />
            </Array>
          </mxGeometry>
        </mxCell>
        <mxCell id="bciM2c_uNqjCZL8pXF_m-32" style="edgeStyle=orthogonalEdgeStyle;rounded=0;orthogonalLoop=1;jettySize=auto;html=1;entryX=0.5;entryY=0;entryDx=0;entryDy=0;" parent="1" source="bciM2c_uNqjCZL8pXF_m-24" target="bciM2c_uNqjCZL8pXF_m-28" edge="1">
          <mxGeometry relative="1" as="geometry" />
        </mxCell>
        <mxCell id="bciM2c_uNqjCZL8pXF_m-24" value="9-15" style="ellipse;whiteSpace=wrap;html=1;aspect=fixed;" parent="1" vertex="1">
          <mxGeometry x="362.5" y="420" width="45" height="45" as="geometry" />
        </mxCell>
        <mxCell id="bciM2c_uNqjCZL8pXF_m-27" value="" style="edgeStyle=elbowEdgeStyle;elbow=horizontal;endArrow=classic;html=1;curved=0;rounded=0;endSize=8;startSize=8;exitX=0;exitY=0.5;exitDx=0;exitDy=0;" parent="1" source="bciM2c_uNqjCZL8pXF_m-8" edge="1">
          <mxGeometry width="50" height="50" relative="1" as="geometry">
            <mxPoint x="400" y="300" as="sourcePoint" />
            <mxPoint x="360" y="440" as="targetPoint" />
            <Array as="points">
              <mxPoint x="300" y="360" />
            </Array>
          </mxGeometry>
        </mxCell>
        <mxCell id="bciM2c_uNqjCZL8pXF_m-30" style="edgeStyle=orthogonalEdgeStyle;rounded=0;orthogonalLoop=1;jettySize=auto;html=1;" parent="1" source="bciM2c_uNqjCZL8pXF_m-28" target="bciM2c_uNqjCZL8pXF_m-29" edge="1">
          <mxGeometry relative="1" as="geometry" />
        </mxCell>
        <mxCell id="bciM2c_uNqjCZL8pXF_m-28" value="16" style="ellipse;whiteSpace=wrap;html=1;aspect=fixed;" parent="1" vertex="1">
          <mxGeometry x="365" y="500" width="40" height="40" as="geometry" />
        </mxCell>
        <mxCell id="bciM2c_uNqjCZL8pXF_m-29" value="17-19" style="ellipse;whiteSpace=wrap;html=1;" parent="1" vertex="1">
          <mxGeometry x="365" y="570" width="40" height="40" as="geometry" />
        </mxCell>
        <mxCell id="bciM2c_uNqjCZL8pXF_m-33" value="" style="edgeStyle=elbowEdgeStyle;elbow=horizontal;endArrow=classic;html=1;curved=0;rounded=0;endSize=8;startSize=8;exitX=1;exitY=0.5;exitDx=0;exitDy=0;entryX=1;entryY=0.5;entryDx=0;entryDy=0;" parent="1" source="bciM2c_uNqjCZL8pXF_m-29" target="bciM2c_uNqjCZL8pXF_m-28" edge="1">
          <mxGeometry width="50" height="50" relative="1" as="geometry">
            <mxPoint x="400" y="440" as="sourcePoint" />
            <mxPoint x="450" y="390" as="targetPoint" />
            <Array as="points">
              <mxPoint x="450" y="480" />
            </Array>
          </mxGeometry>
        </mxCell>
        <mxCell id="bciM2c_uNqjCZL8pXF_m-38" style="edgeStyle=orthogonalEdgeStyle;rounded=0;orthogonalLoop=1;jettySize=auto;html=1;" parent="1" source="bciM2c_uNqjCZL8pXF_m-34" target="bciM2c_uNqjCZL8pXF_m-36" edge="1">
          <mxGeometry relative="1" as="geometry" />
        </mxCell>
        <mxCell id="bciM2c_uNqjCZL8pXF_m-34" value="20" style="ellipse;whiteSpace=wrap;html=1;aspect=fixed;" parent="1" vertex="1">
          <mxGeometry x="365" y="630" width="40" height="40" as="geometry" />
        </mxCell>
        <mxCell id="bciM2c_uNqjCZL8pXF_m-36" value="21" style="ellipse;whiteSpace=wrap;html=1;aspect=fixed;" parent="1" vertex="1">
          <mxGeometry x="365" y="700" width="40" height="40" as="geometry" />
        </mxCell>
        <mxCell id="bciM2c_uNqjCZL8pXF_m-37" value="" style="edgeStyle=elbowEdgeStyle;elbow=horizontal;endArrow=classic;html=1;curved=0;rounded=0;endSize=8;startSize=8;entryX=0;entryY=0.5;entryDx=0;entryDy=0;exitX=0;exitY=0.5;exitDx=0;exitDy=0;" parent="1" source="bciM2c_uNqjCZL8pXF_m-28" target="bciM2c_uNqjCZL8pXF_m-34" edge="1">
          <mxGeometry width="50" height="50" relative="1" as="geometry">
            <mxPoint x="400" y="660" as="sourcePoint" />
            <mxPoint x="450" y="610" as="targetPoint" />
            <Array as="points">
              <mxPoint x="300" y="600" />
            </Array>
          </mxGeometry>
        </mxCell>
        <mxCell id="bciM2c_uNqjCZL8pXF_m-40" value="22-27" style="ellipse;whiteSpace=wrap;html=1;aspect=fixed;" parent="1" vertex="1">
          <mxGeometry x="365" y="780" width="40" height="40" as="geometry" />
        </mxCell>
        <mxCell id="bciM2c_uNqjCZL8pXF_m-42" value="" style="edgeStyle=elbowEdgeStyle;elbow=horizontal;endArrow=classic;html=1;curved=0;rounded=0;endSize=8;startSize=8;exitX=0.5;exitY=1;exitDx=0;exitDy=0;entryX=0.5;entryY=0;entryDx=0;entryDy=0;" parent="1" source="bciM2c_uNqjCZL8pXF_m-36" target="bciM2c_uNqjCZL8pXF_m-40" edge="1">
          <mxGeometry width="50" height="50" relative="1" as="geometry">
            <mxPoint x="400" y="980" as="sourcePoint" />
            <mxPoint x="450" y="930" as="targetPoint" />
            <Array as="points" />
          </mxGeometry>
        </mxCell>
        <mxCell id="bciM2c_uNqjCZL8pXF_m-43" value="" style="edgeStyle=elbowEdgeStyle;elbow=horizontal;endArrow=classic;html=1;curved=0;rounded=0;endSize=8;startSize=8;exitX=0;exitY=0.5;exitDx=0;exitDy=0;entryX=0;entryY=0.5;entryDx=0;entryDy=0;" parent="1" source="bciM2c_uNqjCZL8pXF_m-36" target="FsJOHmcLjSmkyYnjusYE-1" edge="1">
          <mxGeometry width="50" height="50" relative="1" as="geometry">
            <mxPoint x="400" y="980" as="sourcePoint" />
            <mxPoint x="310" y="760" as="targetPoint" />
            <Array as="points">
              <mxPoint x="310" y="700" />
            </Array>
          </mxGeometry>
        </mxCell>
        <mxCell id="bciM2c_uNqjCZL8pXF_m-45" value="" style="edgeStyle=elbowEdgeStyle;elbow=horizontal;endArrow=classic;html=1;curved=0;rounded=0;endSize=8;startSize=8;exitX=0.5;exitY=1;exitDx=0;exitDy=0;entryX=1;entryY=0.5;entryDx=0;entryDy=0;" parent="1" source="bciM2c_uNqjCZL8pXF_m-40" target="bciM2c_uNqjCZL8pXF_m-36" edge="1">
          <mxGeometry width="50" height="50" relative="1" as="geometry">
            <mxPoint x="400" y="980" as="sourcePoint" />
            <mxPoint x="450" y="930" as="targetPoint" />
            <Array as="points">
              <mxPoint x="460" y="810" />
            </Array>
          </mxGeometry>
        </mxCell>
        <mxCell id="bciM2c_uNqjCZL8pXF_m-50" style="edgeStyle=orthogonalEdgeStyle;rounded=0;orthogonalLoop=1;jettySize=auto;html=1;entryX=0.5;entryY=0;entryDx=0;entryDy=0;" parent="1" source="bciM2c_uNqjCZL8pXF_m-47" target="bciM2c_uNqjCZL8pXF_m-49" edge="1">
          <mxGeometry relative="1" as="geometry" />
        </mxCell>
        <mxCell id="bciM2c_uNqjCZL8pXF_m-47" value="31" style="ellipse;whiteSpace=wrap;html=1;aspect=fixed;" parent="1" vertex="1">
          <mxGeometry x="365" y="910" width="40" height="40" as="geometry" />
        </mxCell>
        <mxCell id="FsJOHmcLjSmkyYnjusYE-5" style="edgeStyle=orthogonalEdgeStyle;rounded=0;orthogonalLoop=1;jettySize=auto;html=1;entryX=0;entryY=0.5;entryDx=0;entryDy=0;" edge="1" parent="1" source="bciM2c_uNqjCZL8pXF_m-49" target="FsJOHmcLjSmkyYnjusYE-3">
          <mxGeometry relative="1" as="geometry">
            <Array as="points">
              <mxPoint x="310" y="1050" />
            </Array>
          </mxGeometry>
        </mxCell>
        <mxCell id="bciM2c_uNqjCZL8pXF_m-49" value="32-33" style="ellipse;whiteSpace=wrap;html=1;aspect=fixed;" parent="1" vertex="1">
          <mxGeometry x="290" y="980" width="40" height="40" as="geometry" />
        </mxCell>
        <mxCell id="bciM2c_uNqjCZL8pXF_m-55" style="edgeStyle=orthogonalEdgeStyle;rounded=0;orthogonalLoop=1;jettySize=auto;html=1;entryX=1;entryY=0.5;entryDx=0;entryDy=0;exitX=0.5;exitY=1;exitDx=0;exitDy=0;" parent="1" source="bciM2c_uNqjCZL8pXF_m-53" target="FsJOHmcLjSmkyYnjusYE-3" edge="1">
          <mxGeometry relative="1" as="geometry">
            <Array as="points">
              <mxPoint x="460" y="1050" />
            </Array>
          </mxGeometry>
        </mxCell>
        <mxCell id="bciM2c_uNqjCZL8pXF_m-53" value="34-40" style="ellipse;whiteSpace=wrap;html=1;aspect=fixed;" parent="1" vertex="1">
          <mxGeometry x="440" y="980" width="40" height="40" as="geometry" />
        </mxCell>
        <mxCell id="bciM2c_uNqjCZL8pXF_m-54" value="" style="edgeStyle=elbowEdgeStyle;elbow=horizontal;endArrow=classic;html=1;curved=0;rounded=0;endSize=8;startSize=8;entryX=0.5;entryY=0;entryDx=0;entryDy=0;exitX=1;exitY=0.5;exitDx=0;exitDy=0;" parent="1" source="bciM2c_uNqjCZL8pXF_m-47" target="bciM2c_uNqjCZL8pXF_m-53" edge="1">
          <mxGeometry width="50" height="50" relative="1" as="geometry">
            <mxPoint x="410" y="930" as="sourcePoint" />
            <mxPoint x="310" y="990" as="targetPoint" />
            <Array as="points">
              <mxPoint x="460" y="940" />
            </Array>
          </mxGeometry>
        </mxCell>
        <mxCell id="bciM2c_uNqjCZL8pXF_m-56" value="" style="edgeStyle=segmentEdgeStyle;endArrow=classic;html=1;curved=0;rounded=0;endSize=8;startSize=8;exitX=1;exitY=0.5;exitDx=0;exitDy=0;entryX=1;entryY=0.5;entryDx=0;entryDy=0;" parent="1" source="bciM2c_uNqjCZL8pXF_m-1" target="bciM2c_uNqjCZL8pXF_m-6" edge="1">
          <mxGeometry width="50" height="50" relative="1" as="geometry">
            <mxPoint x="400" y="300" as="sourcePoint" />
            <mxPoint x="450" y="250" as="targetPoint" />
            <Array as="points">
              <mxPoint x="460" y="66" />
              <mxPoint x="460" y="206" />
              <mxPoint x="410" y="206" />
            </Array>
          </mxGeometry>
        </mxCell>
        <mxCell id="FsJOHmcLjSmkyYnjusYE-2" style="edgeStyle=orthogonalEdgeStyle;rounded=0;orthogonalLoop=1;jettySize=auto;html=1;entryX=0.5;entryY=0;entryDx=0;entryDy=0;" edge="1" parent="1" source="FsJOHmcLjSmkyYnjusYE-1" target="bciM2c_uNqjCZL8pXF_m-47">
          <mxGeometry relative="1" as="geometry" />
        </mxCell>
        <mxCell id="FsJOHmcLjSmkyYnjusYE-1" value="28-30" style="ellipse;whiteSpace=wrap;html=1;aspect=fixed;" vertex="1" parent="1">
          <mxGeometry x="365" y="840" width="40" height="40" as="geometry" />
        </mxCell>
        <mxCell id="FsJOHmcLjSmkyYnjusYE-6" style="edgeStyle=orthogonalEdgeStyle;rounded=0;orthogonalLoop=1;jettySize=auto;html=1;entryX=0.5;entryY=0;entryDx=0;entryDy=0;" edge="1" parent="1" source="FsJOHmcLjSmkyYnjusYE-3" target="bciM2c_uNqjCZL8pXF_m-10">
          <mxGeometry relative="1" as="geometry" />
        </mxCell>
        <mxCell id="FsJOHmcLjSmkyYnjusYE-3" value="41" style="ellipse;whiteSpace=wrap;html=1;aspect=fixed;" vertex="1" parent="1">
          <mxGeometry x="365" y="1030" width="40" height="40" as="geometry" />
        </mxCell>
      </root>
    </mxGraphModel>
  </diagram>
</mxfile>
